<svg width="68" height="68" viewBox="0 0 68 68" fill="none" xmlns="http://www.w3.org/2000/svg">
<g filter="url(#filter0_d_1_21)">
<path d="M31.1809 59.9409C31.1622 59.9106 30.8094 59.8779 30.3971 59.8683C29.9847 59.8584 29.2547 59.785 28.7749 59.7051C24.5702 59.0045 20.3204 57.4796 17.4889 55.6556C16.9657 55.3185 16.8461 55.1884 16.9321 55.0493C16.9947 54.9482 17.2026 54.9996 18.4143 55.4155C18.9941 55.6145 19.8939 55.8695 20.4137 55.9822C21.2932 56.1727 21.4726 56.1869 22.9948 56.187C25.2785 56.187 26.0607 56.0577 28.5484 55.269C33.2868 53.7666 34.4723 53.76 39.1793 55.2091C41.8827 56.0415 42.946 56.2254 45.0505 56.2247C46.5817 56.2243 48.0207 55.9545 49.7505 55.3432C50.2103 55.1808 50.6727 55.0317 50.7779 55.012C50.9836 54.9735 51.0835 55.0604 51.0209 55.2232C50.9254 55.472 48.5079 56.8218 47.0241 57.4548C44.1304 58.6891 39.643 59.8322 37.5718 59.8625C37.1513 59.8687 36.7889 59.9033 36.7665 59.9397C36.717 60.0193 31.2301 60.0205 31.1809 59.9409ZM20.3409 54.0733C16.5739 53.5173 13.308 51.8135 10.5237 48.9516C9.00699 47.3927 7.88666 45.7769 6.75711 43.5188C5.27915 40.5645 4.22608 36.7539 4.04555 33.7061C3.98389 32.666 3.9852 26.8854 4.04722 25.897C4.17366 23.8829 4.91002 20.9255 5.92325 18.3621C6.312 17.3785 7.34297 15.2343 7.83642 14.3832C7.98692 14.1235 8.14775 13.8457 8.19385 13.7658C9.18751 12.0402 11.0967 9.62045 12.7835 7.94873C14.3124 6.43349 15.7774 5.24993 17.5417 4.1048C18.0815 3.75444 18.605 3.41201 18.705 3.3438C19.0745 3.09173 21.3128 1.95851 22.1307 1.60932C23.9436 0.835313 26.0153 0.156835 26.6325 0.135042C26.8342 0.12785 27.0161 0.0945802 27.0369 0.0610195C27.0576 0.0274588 27.2457 0 27.4548 0C27.7763 0 27.8365 0.0212842 27.8453 0.138238C27.8538 0.251124 27.7395 0.312434 27.2246 0.471666C25.068 1.1383 22.592 2.31692 20.2042 3.81372C18.4102 4.93822 16.3072 6.69711 14.5681 8.52755C10.1128 13.217 7.52037 18.857 6.73151 25.5772C6.57774 26.8873 6.55746 30.3642 6.69654 31.5993C7.54967 39.1805 10.8275 45.1894 15.6878 48.0823C17.5021 49.1622 19.4951 49.7334 21.7223 49.8119C23.5274 49.8753 24.6818 49.6384 27.9467 48.5345C31.0168 47.4966 31.8481 47.2771 33.1928 47.1498C34.0903 47.0648 35.1528 47.1418 36.1942 47.3672C36.8148 47.5016 39.4005 48.3078 40.8075 48.8057C42.9725 49.5719 44.5767 49.8698 46.2241 49.8119C48.9235 49.7169 51.286 48.8951 53.4339 47.304C57.6459 44.1837 60.49 38.4675 61.2477 31.5995C61.3711 30.4813 61.3722 27.0844 61.2495 25.9334C60.7085 20.8555 59.2103 16.5486 56.6128 12.6036C54.0636 8.73196 50.4511 5.32707 46.4422 3.01741C44.7999 2.07132 42.3112 0.964181 40.7166 0.470577C40.2121 0.314396 40.0805 0.245386 40.0805 0.136858C40.0805 0.0214295 40.1364 0.000145285 40.4396 0.000145285C40.6372 0.000145285 40.8155 0.0271682 40.836 0.0602204C40.8564 0.0932 41.0589 0.127778 41.2859 0.136931C42.3045 0.178119 45.5517 1.38529 47.763 2.54488C54.8293 6.25043 59.9943 12.3048 62.5982 19.9349C63.2764 21.9221 63.8357 24.4856 63.8595 25.7154C63.8669 26.0964 63.9096 26.4525 63.9549 26.5103C64.0191 26.5922 64.0156 26.6022 63.9388 26.556C63.8592 26.5082 63.8563 26.5263 63.9234 26.6514C64.0243 26.8397 63.9855 32.1766 63.8703 33.9603C63.784 35.2981 63.5495 36.635 63.0933 38.3914C61.5673 44.2664 58.404 48.9458 54.1126 51.6766C52.5839 52.6494 50.3338 53.5596 48.581 53.9143C47.8475 54.0627 47.5433 54.0822 45.9696 54.0822C43.5962 54.0822 42.4446 53.8865 39.2079 52.9326C35.8053 51.9298 35.3616 51.837 33.9731 51.837C32.5844 51.837 32.1397 51.9301 28.7383 52.9327C25.6163 53.8529 24.5238 54.0466 22.2675 54.0802C21.3278 54.0941 20.4608 54.0911 20.3409 54.0733ZM20.5954 47.3661C19.1403 47.2073 17.9619 46.8565 16.5602 46.1651C14.6644 45.2298 13.0675 43.7643 11.6914 41.6967C11.0407 40.7189 10.4691 39.6746 10.5169 39.5504C10.5954 39.3459 10.8716 39.4466 11.2873 39.8311C12.196 40.6715 14.2789 42.2052 14.5118 42.2052C14.5525 42.2052 14.6374 42.2517 14.7005 42.3082C14.8557 42.4474 16.0699 42.9759 16.742 43.1967C18.0902 43.6397 19.8305 43.8436 21.2861 43.729C22.9945 43.5947 24.2113 43.3071 26.121 42.5865C29.1308 41.4509 30.7375 41.0548 32.9783 40.8961C34.6464 40.7779 36.603 40.9664 38.3719 41.4159C39.227 41.6332 40.1761 41.944 41.6074 42.4754C43.1577 43.0512 44.0205 43.3104 45.0322 43.5046C48.4239 44.1555 51.5417 43.5563 54.3309 41.7174C55.176 41.1602 56.3921 40.2012 56.8358 39.7422C57.1323 39.4354 57.4259 39.3517 57.503 39.5522C57.5778 39.7469 56.4918 41.5776 55.649 42.6773C55.1851 43.2828 54.1748 44.3224 53.5674 44.8193C52.0995 46.0202 50.212 46.8889 48.2599 47.2618C47.3573 47.4343 45.1923 47.4359 44.1884 47.2648C43.0751 47.0752 41.9092 46.7437 40.5895 46.2419C37.6604 45.1281 36.1823 44.8049 34.0096 44.8028C33.075 44.802 32.5555 44.8394 31.8793 44.9559C30.2664 45.2341 29.629 45.4238 26.8706 46.4478C25.8655 46.8209 24.8728 47.0866 23.8661 47.2518C23.0321 47.3889 21.3435 47.4479 20.5954 47.3661Z" fill="white"/>
</g>
<g filter="url(#filter1_d_1_21)">
<path d="M28.9209 35.5078L21.4323 17.6227C20.9007 16.3915 20.3691 15.5382 19.8375 15.063C19.3059 14.5878 18.6934 14.307 18 14.2206V13.5726C18.0925 13.5726 18.3236 13.5618 18.6934 13.5402C19.0401 13.5186 19.2943 13.5078 19.4561 13.5078C20.2651 13.5078 21.0971 13.5942 21.9523 13.767C22.8075 13.9182 23.6165 14.2854 24.3792 14.8686C25.1419 15.4518 25.7891 16.3699 26.3207 17.6227L31.0011 28.8009L34.1213 20.5063L32.9079 17.6227C32.3763 16.3915 31.7985 15.5382 31.1744 15.063C30.5735 14.5878 29.9263 14.307 29.2329 14.2206V13.5726C29.3254 13.5726 29.5334 13.5618 29.857 13.5402C30.1806 13.5186 30.4233 13.5078 30.585 13.5078C31.394 13.5078 32.2261 13.5942 33.0813 13.767C33.9364 13.9398 34.7454 14.3178 35.5081 14.901C36.2709 15.4626 36.918 16.3699 37.4496 17.6227L42.4074 29.4165L48.3359 13.8318H50L41.7833 35.5078H40.3965L35.0574 22.8068L30.3077 35.5078H28.9209Z" fill="white"/>
</g>
<defs>
<filter id="filter0_d_1_21" x="0" y="0" width="68" height="68" filterUnits="userSpaceOnUse" color-interpolation-filters="sRGB">
<feFlood flood-opacity="0" result="BackgroundImageFix"/>
<feColorMatrix in="SourceAlpha" type="matrix" values="0 0 0 0 0 0 0 0 0 0 0 0 0 0 0 0 0 0 127 0" result="hardAlpha"/>
<feOffset dy="4"/>
<feGaussianBlur stdDeviation="2"/>
<feComposite in2="hardAlpha" operator="out"/>
<feColorMatrix type="matrix" values="0 0 0 0 0 0 0 0 0 0 0 0 0 0 0 0 0 0 0.25 0"/>
<feBlend mode="normal" in2="BackgroundImageFix" result="effect1_dropShadow_1_21"/>
<feBlend mode="normal" in="SourceGraphic" in2="effect1_dropShadow_1_21" result="shape"/>
</filter>
<filter id="filter1_d_1_21" x="14" y="13.5078" width="40" height="30" filterUnits="userSpaceOnUse" color-interpolation-filters="sRGB">
<feFlood flood-opacity="0" result="BackgroundImageFix"/>
<feColorMatrix in="SourceAlpha" type="matrix" values="0 0 0 0 0 0 0 0 0 0 0 0 0 0 0 0 0 0 127 0" result="hardAlpha"/>
<feOffset dy="4"/>
<feGaussianBlur stdDeviation="2"/>
<feComposite in2="hardAlpha" operator="out"/>
<feColorMatrix type="matrix" values="0 0 0 0 0 0 0 0 0 0 0 0 0 0 0 0 0 0 0.25 0"/>
<feBlend mode="normal" in2="BackgroundImageFix" result="effect1_dropShadow_1_21"/>
<feBlend mode="normal" in="SourceGraphic" in2="effect1_dropShadow_1_21" result="shape"/>
</filter>
</defs>
</svg>
